<svg width="960" height="486" xmlns="http://www.w3.org/2000/svg" xmlns:xlink="http://www.w3.org/1999/xlink" overflow="hidden"><defs><clipPath id="clip0"><path d="M160 202 1120 202 1120 688 160 688Z" fill-rule="evenodd" clip-rule="evenodd"/></clipPath></defs><g clip-path="url(#clip0)" transform="translate(-160 -202)"><path d="M162.5 237.834C162.5 229.917 168.917 223.5 176.834 223.5L325.166 223.5C333.083 223.5 339.5 229.917 339.5 237.834L339.5 295.166C339.5 303.083 333.083 309.5 325.166 309.5L176.834 309.5C168.917 309.5 162.5 303.083 162.5 295.166Z" stroke="#2E75B6" stroke-width="3" stroke-miterlimit="8" fill="#9DC3E6" fill-rule="evenodd" fill-opacity="0.6"/><text font-family="Segoe UI,Segoe UI_MSFontService,sans-serif" font-weight="400" font-size="24" transform="translate(227.034 274)">User</text><path d="M521.5 237.834C521.5 229.917 527.917 223.5 535.834 223.5L684.166 223.5C692.083 223.5 698.5 229.917 698.5 237.834L698.5 295.166C698.5 303.083 692.083 309.5 684.166 309.5L535.834 309.5C527.917 309.5 521.5 303.083 521.5 295.166Z" stroke="#2E75B6" stroke-width="3" stroke-miterlimit="8" fill="#9DC3E6" fill-rule="evenodd" fill-opacity="0.6"/><text font-family="Segoe UI,Segoe UI_MSFontService,sans-serif" font-weight="400" font-size="24" transform="translate(550.963 260)">User Agent<tspan font-style="italic" x="10.7467" y="29">(</tspan><tspan font-style="italic" x="18.08" y="29">Browser</tspan><tspan font-style="italic" x="99.7534" y="29">)</tspan></text><path d="M521.5 414.834C521.5 406.917 527.917 400.5 535.834 400.5L684.166 400.5C692.083 400.5 698.5 406.917 698.5 414.834L698.5 472.166C698.5 480.083 692.083 486.5 684.166 486.5L535.834 486.5C527.917 486.5 521.5 480.083 521.5 472.166Z" stroke="#2E75B6" stroke-width="3" stroke-miterlimit="8" fill="#9DC3E6" fill-rule="evenodd" fill-opacity="0.6"/><text font-family="Segoe UI,Segoe UI_MSFontService,sans-serif" font-weight="400" font-size="24" transform="translate(579.546 437)">Client<tspan font-style="italic" x="-44.26" y="29">(</tspan><tspan font-style="italic" x="-36.9266" y="29">App Backend</tspan><tspan font-style="italic" x="97.5934" y="29">)</tspan></text><path d="M941.5 414.834C941.5 406.917 947.917 400.5 955.834 400.5L1104.17 400.5C1112.08 400.5 1118.5 406.917 1118.5 414.834L1118.5 472.166C1118.5 480.083 1112.08 486.5 1104.17 486.5L955.834 486.5C947.917 486.5 941.5 480.083 941.5 472.166Z" stroke="#2E75B6" stroke-width="3" stroke-miterlimit="8" fill="#9DC3E6" fill-rule="evenodd" fill-opacity="0.6"/><text font-family="Segoe UI,Segoe UI_MSFontService,sans-serif" font-weight="400" font-size="24" transform="translate(957.549 437)">Authorization<tspan x="38.26" y="29">Server</tspan></text><path d="M1.5-1.72087e-06 1.5001 84.0122-1.4999 84.0122-1.5 1.72087e-06ZM4.50009 82.5122 0.000104987 91.5122-4.49991 82.5122Z" fill="#0070C0" transform="matrix(1 0 0 -1 576.5 401.012)"/><path d="M339.5 265 513.995 265 513.995 268 339.5 268ZM512.495 262 521.495 266.5 512.495 271Z" fill="#0070C0"/><path d="M698.5 265 1030.79 265 1030.79 393.343 1027.79 393.343 1027.79 266.5 1029.29 268 698.5 268ZM1033.79 391.843 1029.29 400.843 1024.79 391.843Z" fill="#0070C0"/><path d="M-7.3577 1.95996-10.6847 2.24454-10.497 2.21645-21.247 4.52895-21.0756 4.48127-31.6381 8.10627-31.4706 8.03722-41.7831 13.0372-41.654 12.9666-51.654 19.0916-51.5313 19.0078-61.0938 26.2578-60.9902 26.1717-70.0527 34.4217-69.9612 34.3309-78.3987 43.4559-78.3172 43.36-86.0672 53.2975-86.0008 53.2054-93.0633 63.8304-92.9951 63.7172-99.1201 74.9672-99.068 74.8619-104.318 86.6119-104.272 86.4962-108.522 98.6212-108.483 98.4923-111.608 110.867-111.58 110.728-113.517 123.353-113.502 123.198-114.127 135.948-114.126 135.823-113.688 148.511-113.696 148.407-112.383 161.032-112.398 160.928-110.21 173.365-110.228 173.279-107.353 185.404-107.378 185.313-103.815 197-103.847 196.907-99.5968 208.157-99.6336 208.069-94.8211 218.694-94.8647 218.605-89.5522 228.543-89.6099 228.444-83.7974 237.569-83.8625 237.475-77.675 245.725-77.7629 245.618-71.2004 252.868-71.3096 252.76-64.4971 258.885-64.6384 258.772-57.5134 263.772-57.6995 263.661-50.512 267.286-50.7387 267.194-43.3637 269.506-43.59 269.454-39.84 270.017-39.9863 270.002-36.2988 270.189-36.312 270.189-28.805 270.504-21.2958 271.522-13.9948 273.173-6.75951 275.331 0.166289 278.063 6.82776 281.299 13.1132 284.918 19.0243 288.985 24.4316 293.375 29.3371 298.089 33.6847 303.076 37.3398 308.334 40.2959 313.733 42.5574 319.354 43.9235 325.014 44.3704 330.695 41.3796 330.93 40.9421 325.368 40.9794 325.602 39.6669 320.164 39.7334 320.372 37.5459 314.935 37.6219 315.095 34.7469 309.845 34.8308 309.981 31.2683 304.856 31.3693 304.986 27.1193 300.111 27.2106 300.207 22.3981 295.582 22.4921 295.665 17.1796 291.352 17.2746 291.423 11.4621 287.423 11.5641 287.487 5.37655 283.925 5.46964 283.974-1.09286 280.787-0.987955 280.833-7.80046 278.145-7.67871 278.187-14.8037 276.062-14.7058 276.088-21.8933 274.463-21.764 274.486-29.139 273.486-29.0005 273.499-36.4445 273.186-40.2122 272.994-44.1502 272.404-51.7534 270.02-59.1476 266.29-66.4356 261.176-73.3728 254.939-80.0335 247.58-86.2969 239.229-92.1709 230.008-97.5336 219.976-102.386 209.263-106.671 197.922-110.261 186.142-113.157 173.928-115.361 161.395-116.685 148.666-117.126 135.864-116.494 122.974-114.534 110.202-111.375 97.6924-107.082 85.445-101.783 73.5844-95.5983 62.2247-88.4678 51.4973-80.6441 41.4654-72.12 32.2467-62.9599 23.9079-53.2844 16.5722-43.1582 10.3699-32.6978 5.29819-21.9651 1.61479-11.035-0.736442-7.61338-1.02912ZM-9.26191-3.93282 0 0-8.7034 5.04983Z" fill="#0070C0" transform="matrix(-4.37114e-08 1 1 4.37114e-08 610.5 400.5)"/><path d="M941.5 591.834C941.5 583.917 947.917 577.5 955.834 577.5L1104.17 577.5C1112.08 577.5 1118.5 583.917 1118.5 591.834L1118.5 649.166C1118.5 657.083 1112.08 663.5 1104.17 663.5L955.834 663.5C947.917 663.5 941.5 657.083 941.5 649.166Z" stroke="#2E75B6" stroke-width="3" stroke-miterlimit="8" stroke-dasharray="12 9" stroke-opacity="0.6" fill="#9DC3E6" fill-rule="evenodd" fill-opacity="0.25098"/><text font-family="Segoe UI,Segoe UI_MSFontService,sans-serif" font-weight="400" font-size="24" transform="translate(981.456 614)">Resource <tspan x="14.3533" y="29">Server</tspan></text><path d="M7.5-1.5 55.1728-1.5 55.1728 420.836 8.83334 420.836 8.83334 417.836 53.6728 417.836 52.1728 419.336 52.1728 0 53.6728 1.5 7.5 1.5ZM9 4.5 0 0 9-4.5ZM10.3333 423.836 1.33333 419.336 10.3333 414.836Z" fill="#0070C0" transform="matrix(-4.37114e-08 1 1 4.37114e-08 611.5 485.5)"/><path d="M933.336 622.174 921.336 622.174 921.336 619.174 933.336 619.174ZM912.336 622.174 900.336 622.174 900.336 619.174 912.336 619.174ZM891.336 622.174 879.336 622.174 879.336 619.174 891.336 619.174ZM870.336 622.174 858.336 622.174 858.336 619.174 870.336 619.174ZM849.336 622.174 837.336 622.174 837.336 619.174 849.336 619.174ZM828.336 622.174 816.336 622.174 816.336 619.174 828.336 619.174ZM807.336 622.174 795.336 622.174 795.336 619.174 807.336 619.174ZM786.336 622.174 774.336 622.174 774.336 619.174 786.336 619.174ZM765.336 622.174 753.336 622.174 753.336 619.174 765.336 619.174ZM744.336 622.174 732.336 622.174 732.336 619.174 744.336 619.174ZM723.336 622.174 711.336 622.174 711.336 619.174 723.336 619.174ZM702.336 622.174 690.336 622.174 690.336 619.174 702.336 619.174ZM681.336 622.174 669.336 622.174 669.336 619.174 681.336 619.174ZM660.336 622.174 648.336 622.174 648.336 619.174 660.336 619.174ZM639.336 622.174 627.336 622.174 627.336 619.174 639.336 619.174ZM618.336 622.174 606.336 622.174 606.336 619.174 618.336 619.174ZM597.336 622.174 585.336 622.174 585.336 619.174 597.336 619.174ZM576.336 622.174 564.336 622.174 564.336 619.174 576.336 619.174ZM555.336 622.174 543.336 622.174 543.336 619.174 555.336 619.174ZM534.336 622.174 522.336 622.174 522.336 619.174 534.336 619.174ZM513.336 622.174 501.336 622.174 501.336 619.174 513.336 619.174ZM492.336 622.174 480.336 622.174 480.336 619.174 492.336 619.174ZM471.336 622.174 459.336 622.174 459.336 619.174 471.336 619.174ZM450.336 622.174 437.529 622.174 437.529 619.981 440.529 619.981 440.529 620.674 439.029 619.174 450.336 619.174ZM437.529 610.981 437.529 598.981 440.529 598.981 440.529 610.981ZM437.529 589.981 437.529 577.981 440.529 577.981 440.529 589.981ZM437.529 568.981 437.529 556.981 440.529 556.981 440.529 568.981ZM437.529 547.981 437.529 535.981 440.529 535.981 440.529 547.981ZM437.529 526.981 437.529 514.981 440.529 514.981 440.529 526.981ZM437.529 505.981 437.529 493.981 440.529 493.981 440.529 505.981ZM437.529 484.981 437.529 472.981 440.529 472.981 440.529 484.981ZM437.529 463.981 437.529 451.981 440.529 451.981 440.529 463.981ZM439.548 442 451.548 442 451.548 445 439.548 445ZM460.548 442 472.548 442 472.548 445 460.548 445ZM481.548 442 493.548 442 493.548 445 481.548 445ZM502.548 442 514 442 514 445 502.548 445ZM931.836 616.174 940.836 620.674 931.836 625.174ZM512.5 439 521.5 443.5 512.5 448Z" fill="#0070C0" fill-opacity="0.6"/><text font-family="Segoe UI,Segoe UI_MSFontService,sans-serif" font-weight="400" font-size="19" transform="translate(445.009 350)">1. Link to auth <tspan x="0" y="23">server</tspan><tspan x="-78.1815" y="-123">2. User enter </tspan><tspan x="-78.1815" y="-100">their credentials</tspan><tspan x="413.71" y="-124">3. Sent credentials to </tspan><tspan x="413.71" y="-101">authorization server</tspan><tspan x="285.115" y="-2">4. Redirect to </tspan><tspan x="285.115" y="21">Client with code</tspan><tspan x="305.691" y="157">6</tspan>. <tspan x="324.857" y="157">Exchange access </tspan><tspan x="305.691" y="180">token with code</tspan><tspan x="158.491" y="300">7</tspan>. <tspan x="177.658" y="300">Get resources </tspan><tspan x="158.491" y="323">with access token</tspan></text></g></svg>