<svg width="853" height="234" xmlns="http://www.w3.org/2000/svg" xmlns:xlink="http://www.w3.org/1999/xlink" overflow="hidden"><defs><clipPath id="clip0"><path d="M218 393 1071 393 1071 627 218 627Z" fill-rule="evenodd" clip-rule="evenodd"/></clipPath></defs><g clip-path="url(#clip0)" transform="translate(-218 -393)"><path d="M220.5 553.834C220.5 545.917 226.917 539.5 234.834 539.5L383.166 539.5C391.083 539.5 397.5 545.917 397.5 553.834L397.5 611.166C397.5 619.083 391.083 625.5 383.166 625.5L234.834 625.5C226.917 625.5 220.5 619.083 220.5 611.166Z" stroke="#2E75B6" stroke-width="3" stroke-miterlimit="8" fill="#9DC3E6" fill-rule="evenodd" fill-opacity="0.6"/><text font-family="Segoe UI,Segoe UI_MSFontService,sans-serif" font-weight="400" font-size="24" transform="translate(284.645 591)">User</text><path d="M491.5 553.834C491.5 545.917 497.917 539.5 505.834 539.5L654.166 539.5C662.083 539.5 668.5 545.917 668.5 553.834L668.5 611.166C668.5 619.083 662.083 625.5 654.166 625.5L505.834 625.5C497.917 625.5 491.5 619.083 491.5 611.166Z" stroke="#2E75B6" stroke-width="3" stroke-miterlimit="8" fill="#9DC3E6" fill-rule="evenodd" fill-opacity="0.6"/><text font-family="Segoe UI,Segoe UI_MSFontService,sans-serif" font-weight="400" font-size="24" transform="translate(520.429 576)">User Agent<tspan font-style="italic" x="10.7466" y="29">(</tspan><tspan font-style="italic" x="18.08" y="29">Browser</tspan><tspan font-style="italic" x="99.7534" y="29">)</tspan></text><path d="M883.5 553.834C883.5 545.917 889.917 539.5 897.834 539.5L1046.17 539.5C1054.08 539.5 1060.5 545.917 1060.5 553.834L1060.5 611.166C1060.5 619.083 1054.08 625.5 1046.17 625.5L897.834 625.5C889.917 625.5 883.5 619.083 883.5 611.166Z" stroke="#2E75B6" stroke-width="3" stroke-miterlimit="8" fill="#9DC3E6" fill-rule="evenodd" fill-opacity="0.6"/><text font-family="Segoe UI,Segoe UI_MSFontService,sans-serif" font-weight="400" font-size="24" transform="translate(941.271 576)">Client<tspan font-style="italic" x="-44.26" y="29">(</tspan><tspan font-style="italic" x="-36.9267" y="29">App Backend</tspan><tspan font-style="italic" x="97.5933" y="29">)</tspan></text><path d="M687.5 409.667C687.5 401.843 693.843 395.5 701.667 395.5L850.333 395.5C858.157 395.5 864.5 401.843 864.5 409.667L864.5 466.333C864.5 474.157 858.157 480.5 850.333 480.5L701.667 480.5C693.843 480.5 687.5 474.157 687.5 466.333Z" stroke="#2E75B6" stroke-width="3" stroke-miterlimit="8" fill="#9DC3E6" fill-rule="evenodd" fill-opacity="0.6"/><text font-family="Segoe UI,Segoe UI_MSFontService,sans-serif" font-weight="400" font-size="24" transform="translate(703.808 432)">Authorization<tspan x="38.26" y="29">Server</tspan></text><path d="M1.03099-1.08952 103.163 95.5547 101.101 97.7338-1.03099 1.08952ZM104.135 92.3448 107.579 101.799 97.9491 98.8819Z" fill="#0070C0" transform="matrix(1 0 0 -1 579.5 540.299)"/><path d="M397.5 581 483.849 581 483.849 584 397.5 584ZM482.349 578 491.349 582.5 482.349 587Z" fill="#0070C0"/><path d="M865.53 437.409 967.656 533.847 965.596 536.028 863.47 439.591ZM968.625 530.636 972.079 540.087 962.446 537.179Z" fill="#0070C0"/><path d="M7.50117-1.49259 215.16-1.2874 215.157 1.7126 7.49821 1.50741ZM8.99555 4.50889 0 0 9.00444-4.4911Z" fill="#0070C0" transform="matrix(1 0 0 -1 668.5 582.713)"/><text font-family="Segoe UI,Segoe UI_MSFontService,sans-serif" font-style="italic" font-weight="400" font-size="27" transform="translate(489.071 498)">credentials<tspan x="467.821" y="0">token</tspan></text></g></svg>