<svg width="994" height="201" xmlns="http://www.w3.org/2000/svg" xmlns:xlink="http://www.w3.org/1999/xlink" overflow="hidden"><defs><clipPath id="clip0"><path d="M143 414 1137 414 1137 615 143 615Z" fill-rule="evenodd" clip-rule="evenodd"/></clipPath></defs><g clip-path="url(#clip0)" transform="translate(-143 -414)"><path d="M145.5 481.834C145.5 473.917 151.917 467.5 159.834 467.5L308.166 467.5C316.083 467.5 322.5 473.917 322.5 481.834L322.5 539.166C322.5 547.083 316.083 553.5 308.166 553.5L159.834 553.5C151.917 553.5 145.5 547.083 145.5 539.166Z" stroke="#2E75B6" stroke-width="3" stroke-miterlimit="8" fill="#9DC3E6" fill-rule="evenodd" fill-opacity="0.6"/><text font-family="Segoe UI,Segoe UI_MSFontService,sans-serif" font-weight="400" font-size="24" transform="translate(209.825 519)">User</text><path d="M416.5 481.834C416.5 473.917 422.917 467.5 430.834 467.5L579.166 467.5C587.083 467.5 593.5 473.917 593.5 481.834L593.5 539.166C593.5 547.083 587.083 553.5 579.166 553.5L430.834 553.5C422.917 553.5 416.5 547.083 416.5 539.166Z" stroke="#2E75B6" stroke-width="3" stroke-miterlimit="8" fill="#9DC3E6" fill-rule="evenodd" fill-opacity="0.6"/><text font-family="Segoe UI,Segoe UI_MSFontService,sans-serif" font-weight="400" font-size="24" transform="translate(445.608 504)">User Agent<tspan font-style="italic" x="10.7467" y="29">(</tspan><tspan font-style="italic" x="18.08" y="29">Browser</tspan><tspan font-style="italic" x="99.7533" y="29">)</tspan></text><path d="M687.5 481.834C687.5 473.917 693.917 467.5 701.834 467.5L850.166 467.5C858.083 467.5 864.5 473.917 864.5 481.834L864.5 539.166C864.5 547.083 858.083 553.5 850.166 553.5L701.834 553.5C693.917 553.5 687.5 547.083 687.5 539.166Z" stroke="#2E75B6" stroke-width="3" stroke-miterlimit="8" fill="#9DC3E6" fill-rule="evenodd" fill-opacity="0.6"/><text font-family="Segoe UI,Segoe UI_MSFontService,sans-serif" font-weight="400" font-size="24" transform="translate(745.142 504)">Client<tspan font-style="italic" x="-44.26" y="29">(</tspan><tspan font-style="italic" x="-36.9266" y="29">App Backend</tspan><tspan font-style="italic" x="97.5934" y="29">)</tspan></text><path d="M958.5 481.834C958.5 473.917 964.917 467.5 972.834 467.5L1121.17 467.5C1129.08 467.5 1135.5 473.917 1135.5 481.834L1135.5 539.166C1135.5 547.083 1129.08 553.5 1121.17 553.5L972.834 553.5C964.917 553.5 958.5 547.083 958.5 539.166Z" stroke="#2E75B6" stroke-width="3" stroke-miterlimit="8" fill="#9DC3E6" fill-rule="evenodd" fill-opacity="0.6"/><text font-family="Segoe UI,Segoe UI_MSFontService,sans-serif" font-weight="400" font-size="24" transform="translate(974.759 504)">Authorization<tspan x="38.26" y="29">Server</tspan></text><path d="M322.5 509 408.849 509 408.849 512 322.5 512ZM407.349 506 416.349 510.5 407.349 515Z" fill="#0070C0"/><path d="M7.50324-1.48302 86.3527-1.30448 86.3459 1.69551 7.49645 1.51698ZM8.98979 4.52037 0 0 9.01017-4.47961ZM84.8596-4.30787 93.8493 0.212493 84.8392 4.6921Z" fill="#0070C0" transform="matrix(-1 -8.74228e-08 -8.74228e-08 1 687.349 510.5)"/><path d="M7.49999-1.49999 86.3494-1.4999 86.3494 1.5001 7.49999 1.50001ZM9 4.50001 0 0 9-4.49999ZM84.8493-4.49991 93.8493 0.000104987 84.8493 4.50009Z" fill="#0070C0" transform="matrix(-1 -8.74228e-08 -8.74228e-08 1 958.349 510.5)"/><text fill="#C00000" font-family="Segoe UI,Segoe UI_MSFontService,sans-serif" font-style="italic" font-weight="400" font-size="27" transform="translate(466.821 592)">unsafe<tspan x="270.95" y="0">unsafe</tspan><tspan fill="#000000" x="-159.785" y="-143">credentials</tspan><tspan fill="#000000" x="111.165" y="-143">credentials</tspan><tspan fill="#000000" x="382.116" y="-143">credentials</tspan><tspan fill="#000000" x="412.409" y="0">token</tspan></text></g></svg>