<svg xmlns="http://www.w3.org/2000/svg" xmlns:xlink="http://www.w3.org/1999/xlink" id="processonSvg1000" width="700.813" height="493.222" viewBox="43.201 28.031 700.813 493.222"><defs id="ProcessOnDefs1001"><marker id="ProcessOnMarker1021" markerHeight="10.551" markerUnits="userSpaceOnUse" markerWidth="16.236" orient="auto" refX="-1" refY="3.899" viewBox="-1 -1.376 16.236 10.551"><path id="ProcessOnPath1022" fill="#323232" stroke="#323232" stroke-width="2" d="M12.0 3.8990363547948754L0.0 7.798072709589751V0.0Z" transform="matrix(1.0,0.0,0.0,1.0,0.0,0.0)"/></marker><marker id="ProcessOnMarker1025" markerHeight="10.551" markerUnits="userSpaceOnUse" markerWidth="16.236" orient="auto" refX="-1" refY="3.899" viewBox="-1 -1.376 16.236 10.551"><path id="ProcessOnPath1026" fill="#323232" stroke="#323232" stroke-width="2" d="M12.0 3.8990363547948754L0.0 7.798072709589751V0.0Z" transform="matrix(1.0,0.0,0.0,1.0,0.0,0.0)"/></marker><marker id="ProcessOnMarker1039" markerHeight="10.551" markerUnits="userSpaceOnUse" markerWidth="16.236" orient="auto" refX="-1" refY="3.899" viewBox="-1 -1.376 16.236 10.551"><path id="ProcessOnPath1040" fill="#323232" stroke="#323232" stroke-width="2" d="M12.0 3.8990363547948754L0.0 7.798072709589751V0.0Z" transform="matrix(1.0,0.0,0.0,1.0,0.0,0.0)"/></marker><marker id="ProcessOnMarker1050" markerHeight="10.551" markerUnits="userSpaceOnUse" markerWidth="16.236" orient="auto" refX="-1" refY="3.899" viewBox="-1 -1.376 16.236 10.551"><path id="ProcessOnPath1051" fill="#323232" stroke="#323232" stroke-width="2" d="M12.0 3.8990363547948754L0.0 7.798072709589751V0.0Z" transform="matrix(1.0,0.0,0.0,1.0,0.0,0.0)"/></marker><marker id="ProcessOnMarker1057" markerHeight="10.551" markerUnits="userSpaceOnUse" markerWidth="16.236" orient="auto" refX="-1" refY="3.899" viewBox="-1 -1.376 16.236 10.551"><path id="ProcessOnPath1058" fill="#323232" stroke="#323232" stroke-width="2" d="M12.0 3.8990363547948754L0.0 7.798072709589751V0.0Z" transform="matrix(1.0,0.0,0.0,1.0,0.0,0.0)"/></marker><marker id="ProcessOnMarker1072" markerHeight="10.551" markerUnits="userSpaceOnUse" markerWidth="16.236" orient="auto" refX="-1" refY="3.899" viewBox="-1 -1.376 16.236 10.551"><path id="ProcessOnPath1073" fill="#323232" stroke="#323232" stroke-width="2" d="M12.0 3.8990363547948754L0.0 7.798072709589751V0.0Z" transform="matrix(1.0,0.0,0.0,1.0,0.0,0.0)"/></marker><marker id="ProcessOnMarker1084" markerHeight="10.551" markerUnits="userSpaceOnUse" markerWidth="16.236" orient="auto" refX="-1" refY="3.899" viewBox="-1 -1.376 16.236 10.551"><path id="ProcessOnPath1085" fill="#323232" stroke="#323232" stroke-width="2" d="M12.0 3.8990363547948754L0.0 7.798072709589751V0.0Z" transform="matrix(1.0,0.0,0.0,1.0,0.0,0.0)"/></marker><marker id="ProcessOnMarker1093" markerHeight="10.551" markerUnits="userSpaceOnUse" markerWidth="16.236" orient="auto" refX="-1" refY="3.899" viewBox="-1 -1.376 16.236 10.551"><path id="ProcessOnPath1094" fill="#323232" stroke="#323232" stroke-width="2" d="M12.0 3.8990363547948754L0.0 7.798072709589751V0.0Z" transform="matrix(1.0,0.0,0.0,1.0,0.0,0.0)"/></marker><marker id="ProcessOnMarker1097" markerHeight="10.551" markerUnits="userSpaceOnUse" markerWidth="16.236" orient="auto" refX="-1" refY="3.899" viewBox="-1 -1.376 16.236 10.551"><path id="ProcessOnPath1098" fill="#323232" stroke="#323232" stroke-width="2" d="M12.0 3.8990363547948754L0.0 7.798072709589751V0.0Z" transform="matrix(1.0,0.0,0.0,1.0,0.0,0.0)"/></marker><marker id="ProcessOnMarker1104" markerHeight="10.551" markerUnits="userSpaceOnUse" markerWidth="16.236" orient="auto" refX="-1" refY="3.899" viewBox="-1 -1.376 16.236 10.551"><path id="ProcessOnPath1105" fill="#323232" stroke="#323232" stroke-width="2" d="M12.0 3.8990363547948754L0.0 7.798072709589751V0.0Z" transform="matrix(1.0,0.0,0.0,1.0,0.0,0.0)"/></marker><marker id="ProcessOnMarker1112" markerHeight="10.551" markerUnits="userSpaceOnUse" markerWidth="16.236" orient="auto" refX="-1" refY="3.899" viewBox="-1 -1.376 16.236 10.551"><path id="ProcessOnPath1113" fill="#323232" stroke="#323232" stroke-width="2" d="M12.0 3.8990363547948754L0.0 7.798072709589751V0.0Z" transform="matrix(1.0,0.0,0.0,1.0,0.0,0.0)"/></marker><marker id="ProcessOnMarker1116" markerHeight="10.551" markerUnits="userSpaceOnUse" markerWidth="16.236" orient="auto" refX="-1" refY="3.899" viewBox="-1 -1.376 16.236 10.551"><path id="ProcessOnPath1117" fill="#323232" stroke="#323232" stroke-width="2" d="M12.0 3.8990363547948754L0.0 7.798072709589751V0.0Z" transform="matrix(1.0,0.0,0.0,1.0,0.0,0.0)"/></marker></defs><g id="ProcessOnG1002"><path id="ProcessOnPath1003" fill="none" d="M43.201385498046875 28.031246185302734H744.0138854980469V521.2534713745117H43.201385498046875V28.031246185302734Z"/><g id="ProcessOnG1004"><g id="ProcessOnG1005" opacity="1" transform="matrix(1.0,0.0,0.0,1.0,384.0138854980469,48.031246185302734)"><path id="ProcessOnPath1006" fill="#fff" stroke="#323232" stroke-dasharray="none" stroke-width="2" d="M16.666666666666668 0.0L83.33333333333333 0.0C105.55555555555556 0.0 105.55555555555556 50.0 83.33333333333333 50.0L16.666666666666668 50.0C-5.555555555555556 50.0 -5.555555555555556 0.0 16.666666666666668 0.0Z" opacity="1"/><g id="ProcessOnG1007" transform="matrix(1.0,0.0,0.0,1.0,10.0,16.875)"><text id="ProcessOnText1008" x="39" y="13.325" fill="#000" family="微软雅黑" font-family="微软雅黑" font-size="13" font-style="normal" font-weight="normal" size="13" text-anchor="middle" text-decoration="none">开始</text></g></g><g id="ProcessOnG1009" opacity="1" transform="matrix(1.0,0.0,0.0,1.0,366.0138854980469,129.03124618530273)"><path id="ProcessOnPath1010" fill="#fff" stroke="#323232" stroke-dasharray="none" stroke-width="2" d="M0.0 45.0L68.0 0.0L136.0 45.0L68.0 90.0L0.0 45.0Z" opacity="1"/><g id="ProcessOnG1011" transform="matrix(1.0,0.0,0.0,1.0,10.0,28.75)"><text id="ProcessOnText1012" x="57" y="13.325" fill="#000" family="微软雅黑" font-family="微软雅黑" font-size="13" font-style="normal" font-weight="normal" size="13" text-anchor="middle" text-decoration="none">localStorage中存</text><text id="ProcessOnText1013" x="57" y="29.575" fill="#000" family="微软雅黑" font-family="微软雅黑" font-size="13" font-style="normal" font-weight="normal" size="13" text-anchor="middle" text-decoration="none">在token字段？</text></g></g><g id="ProcessOnG1014" opacity="1" transform="matrix(1.0,0.0,0.0,1.0,219.01388549804688,213.36458206176758)"><path id="ProcessOnPath1015" fill="#fff" stroke="#323232" stroke-dasharray="none" stroke-width="2" d="M0.0 0.0L100.0 0.0L100.0 37.666664123535156L0.0 37.666664123535156Z" opacity="1"/><g id="ProcessOnG1016" transform="matrix(1.0,0.0,0.0,1.0,10.0,2.583332061767578)"><text id="ProcessOnText1017" x="39" y="13.325" fill="#000" family="微软雅黑" font-family="微软雅黑" font-size="13" font-style="normal" font-weight="normal" size="13" text-anchor="middle" text-decoration="none">标注为未登录</text><text id="ProcessOnText1018" x="39" y="29.575" fill="#000" family="微软雅黑" font-family="微软雅黑" font-size="13" font-style="normal" font-weight="normal" size="13" text-anchor="middle" text-decoration="none">状态</text></g></g><g id="ProcessOnG1019"><path id="ProcessOnPath1020" fill="none" stroke="#323232" stroke-dasharray="none" stroke-width="2" marker-end="url(#ProcessOnMarker1021)" d="M434.0138854980469 98.03124618530273L434.0138854980469 113.53124618530273L434.0138854980469 113.53124618530273L434.0138854980469 113.79517820780295"/></g><g id="ProcessOnG1023"><path id="ProcessOnPath1024" fill="none" stroke="#323232" stroke-dasharray="none" stroke-width="2" marker-end="url(#ProcessOnMarker1025)" d="M366.0138854980469 174.03124618530273L269.0138854980469 174.03124618530273L269.0138854980469 198.12851408426778"/><g id="ProcessOnG1027" transform="matrix(1.0,0.0,0.0,1.0,305.46525154856437,165.90624618530273)"><path id="ProcessOnPath1028" fill="#fff" d="M0 0H13.0V16.25H0Z" transform="matrix(1.0,0.0,0.0,1.0,-6.5,0.0)"/><text id="ProcessOnText1029" x="0" y="13.325" fill="#000" family="微软雅黑" font-family="微软雅黑" font-size="13" font-style="normal" font-weight="normal" size="13" text-anchor="middle" text-decoration="none">否</text></g></g><g id="ProcessOnG1030" opacity="1" transform="matrix(1.0,0.0,0.0,1.0,487.0138854980469,208.03124618530273)"><path id="ProcessOnPath1031" fill="#fff" stroke="#323232" stroke-dasharray="none" stroke-width="2" d="M0.0 0.0L237.0 0.0L237.0 68.22222518920898L0.0 68.22222518920898Z" opacity="1"/><g id="ProcessOnG1032" transform="matrix(1.0,0.0,0.0,1.0,10.0,1.6111125946044922)"><text id="ProcessOnText1033" x="107.5" y="13.325" fill="#000" family="微软雅黑" font-family="微软雅黑" font-size="13" font-style="normal" font-weight="normal" size="13" text-anchor="middle" text-decoration="none">向服务器请求用户信息</text><text id="ProcessOnText1035" x="107.5" y="45.825" fill="#000" family="微软雅黑" font-family="微软雅黑" font-size="13" font-style="normal" font-weight="normal" size="13" text-anchor="middle" text-decoration="none">(可能从本地缓存直接读取，如果非必</text><text id="ProcessOnText1036" x="107.5" y="62.075" fill="#000" family="微软雅黑" font-family="微软雅黑" font-size="13" font-style="normal" font-weight="normal" size="13" text-anchor="middle" text-decoration="none">要则展示未登录的用户界面)</text></g></g><g id="ProcessOnG1037"><path id="ProcessOnPath1038" fill="none" stroke="#323232" stroke-dasharray="none" stroke-width="2" marker-end="url(#ProcessOnMarker1039)" d="M502.0138854980469 174.03124618530273L605.5138854980469 174.03124618530273L605.5138854980469 192.79517820780293"/><g id="ProcessOnG1041" transform="matrix(1.0,0.0,0.0,1.0,563.145851509297,165.90624618530273)"><path id="ProcessOnPath1042" fill="#fff" d="M0 0H13.0V16.25H0Z" transform="matrix(1.0,0.0,0.0,1.0,-6.5,0.0)"/><text id="ProcessOnText1043" x="0" y="13.325" fill="#000" family="微软雅黑" font-family="微软雅黑" font-size="13" font-style="normal" font-weight="normal" size="13" text-anchor="middle" text-decoration="none">是</text></g></g><g id="ProcessOnG1044" opacity="1" transform="matrix(1.0,0.0,0.0,1.0,363.0138854980469,268.03124618530273)"><path id="ProcessOnPath1045" fill="#fff" stroke="#323232" stroke-dasharray="none" stroke-width="2" d="M0.0 38.5L71.0 0.0L142.0 38.5L71.0 77.0L0.0 38.5Z" opacity="1"/><g id="ProcessOnG1046" transform="matrix(1.0,0.0,0.0,1.0,10.0,30.375)"><text id="ProcessOnText1047" x="60" y="13.325" fill="#000" family="微软雅黑" font-family="微软雅黑" font-size="13" font-style="normal" font-weight="normal" size="13" text-anchor="middle" text-decoration="none">token过期？</text></g></g><g id="ProcessOnG1048"><path id="ProcessOnPath1049" fill="none" stroke="#323232" stroke-dasharray="none" stroke-width="2" marker-end="url(#ProcessOnMarker1050)" d="M363.0138854980469 306.53124618530273L341.0138854980469 306.53124618530273L341.0138854980469 232.19791412353516L334.24995347554665 232.19791412353516"/><g id="ProcessOnG1052" transform="matrix(1.0,0.0,0.0,1.0,341.0138854980469,268.8576141431688)"><path id="ProcessOnPath1053" fill="#fff" d="M0 0H13.0V16.25H0Z" transform="matrix(1.0,0.0,0.0,1.0,-6.5,0.0)"/><text id="ProcessOnText1054" x="0" y="13.325" fill="#000" family="微软雅黑" font-family="微软雅黑" font-size="13" font-style="normal" font-weight="normal" size="13" text-anchor="middle" text-decoration="none">是</text></g></g><g id="ProcessOnG1055"><path id="ProcessOnPath1056" fill="none" stroke="#323232" stroke-dasharray="none" stroke-width="2" marker-end="url(#ProcessOnMarker1057)" d="M605.5138854980469 276.2534713745117L605.5138854980469 306.53124618530273L520.2499534755467 306.53124618530273"/><g id="ProcessOnG1059" transform="matrix(1.0,0.0,0.0,1.0,578.0208068921922,298.40624618530273)"><path id="ProcessOnPath1060" fill="#fff" d="M0 0H65.0V16.25H0Z" transform="matrix(1.0,0.0,0.0,1.0,-32.5,0.0)"/><text id="ProcessOnText1061" x="0" y="13.325" fill="#000" family="微软雅黑" font-family="微软雅黑" font-size="13" font-style="normal" font-weight="normal" size="13" text-anchor="middle" text-decoration="none">请求服务器</text></g></g><g id="ProcessOnG1062" opacity="1" transform="matrix(1.0,0.0,0.0,1.0,356.2638854980469,459.3645820617676)"><path id="ProcessOnPath1063" fill="#fff" stroke="#323232" stroke-dasharray="none" stroke-width="2" d="M0.0 0.0L155.5 0.0L155.5 41.88888931274414L0.0 41.88888931274414Z" opacity="1"/><g id="ProcessOnG1064" transform="matrix(1.0,0.0,0.0,1.0,10.0,12.81944465637207)"><text id="ProcessOnText1065" x="66.75" y="13.325" fill="#000" family="微软雅黑" font-family="微软雅黑" font-size="13" font-style="normal" font-weight="normal" size="13" text-anchor="middle" text-decoration="none">登录状态下的用户界面</text></g></g><g id="ProcessOnG1066" opacity="1" transform="matrix(1.0,0.0,0.0,1.0,219.01388549804688,327.3645820617676)"><path id="ProcessOnPath1067" fill="#fff" stroke="#323232" stroke-dasharray="none" stroke-width="2" d="M0.0 0.0L100.0 0.0L100.0 39.0L0.0 39.0Z" opacity="1"/><g id="ProcessOnG1068" transform="matrix(1.0,0.0,0.0,1.0,10.0,11.375)"><text id="ProcessOnText1069" x="39" y="13.325" fill="#000" family="微软雅黑" font-family="微软雅黑" font-size="13" font-style="normal" font-weight="normal" size="13" text-anchor="middle" text-decoration="none">登录</text></g></g><g id="ProcessOnG1070"><path id="ProcessOnPath1071" fill="none" stroke="#323232" stroke-dasharray="none" stroke-width="2" marker-end="url(#ProcessOnMarker1072)" d="M269.0138854980469 251.03124618530273L269.0138854980469 289.19791412353516L269.0138854980469 289.19791412353516L269.0138854980469 312.1285140842678"/><g id="ProcessOnG1074" transform="matrix(1.0,0.0,0.0,1.0,269.0138854980469,273.4548801347853)"><path id="ProcessOnPath1075" fill="#fff" d="M0 0H91.0V16.25H0Z" transform="matrix(1.0,0.0,0.0,1.0,-45.5,0.0)"/><text id="ProcessOnText1076" x="0" y="13.325" fill="#000" family="微软雅黑" font-family="微软雅黑" font-size="13" font-style="normal" font-weight="normal" size="13" text-anchor="middle" text-decoration="none">需要登录的业务</text></g></g><g id="ProcessOnG1077" opacity="1" transform="matrix(1.0,0.0,0.0,1.0,209.20138549804688,400.8645820617676)"><path id="ProcessOnPath1078" fill="#fff" stroke="#323232" stroke-dasharray="none" stroke-width="2" d="M0.0 0.0L119.625 0.0L119.625 38.38888931274414L0.0 38.38888931274414Z" opacity="1"/><g id="ProcessOnG1079" transform="matrix(1.0,0.0,0.0,1.0,10.0,2.9444446563720703)"><text id="ProcessOnText1080" x="48.813" y="13.325" fill="#000" family="微软雅黑" font-family="微软雅黑" font-size="13" font-style="normal" font-weight="normal" size="13" text-anchor="middle" text-decoration="none">获取用户信息</text><text id="ProcessOnText1081" x="48.813" y="29.575" fill="#000" family="微软雅黑" font-family="微软雅黑" font-size="13" font-style="normal" font-weight="normal" size="13" text-anchor="middle" text-decoration="none">保存token</text></g></g><g id="ProcessOnG1082"><path id="ProcessOnPath1083" fill="none" stroke="#323232" stroke-dasharray="none" stroke-width="2" marker-end="url(#ProcessOnMarker1084)" d="M269.0138854980469 366.3645820617676L269.0138854980469 383.6145820617676L269.0138854980469 383.6145820617676L269.0138854980469 385.6285140842678"/></g><g id="ProcessOnG1086" opacity="1" transform="matrix(1.0,0.0,0.0,1.0,63.201385498046875,251.03124618530273)"><path id="ProcessOnPath1087" fill="#fff" stroke="#323232" stroke-dasharray="none" stroke-width="2" d="M0.0 0.0L146.0 0.0L146.0 45.333335876464844L0.0 45.333335876464844Z" opacity="1"/><g id="ProcessOnG1088" transform="matrix(1.0,0.0,0.0,1.0,10.0,6.416667938232422)"><text id="ProcessOnText1089" x="62" y="13.325" fill="#000" family="微软雅黑" font-family="微软雅黑" font-size="13" font-style="normal" font-weight="normal" size="13" text-anchor="middle" text-decoration="none">未登录状态下的用户</text><text id="ProcessOnText1090" x="62" y="29.575" fill="#000" family="微软雅黑" font-family="微软雅黑" font-size="13" font-style="normal" font-weight="normal" size="13" text-anchor="middle" text-decoration="none">界面</text></g></g><g id="ProcessOnG1091"><path id="ProcessOnPath1092" fill="none" stroke="#323232" stroke-dasharray="none" stroke-width="2" marker-end="url(#ProcessOnMarker1093)" d="M219.01388549804688 232.19791412353516L136.20138549804688 232.19791412353516L136.20138549804688 235.79517820780293"/></g><g id="ProcessOnG1095"><path id="ProcessOnPath1096" fill="none" stroke="#323232" stroke-dasharray="none" stroke-width="2" marker-end="url(#ProcessOnMarker1097)" d="M136.20138549804688 296.3645820617676L136.20138549804688 346.8645820617676L203.77781752054707 346.8645820617676"/><g id="ProcessOnG1099" transform="matrix(1.0,0.0,0.0,1.0,144.73960150929696,338.7395820617676)"><path id="ProcessOnPath1100" fill="#fff" d="M0 0H91.0V16.25H0Z" transform="matrix(1.0,0.0,0.0,1.0,-45.5,0.0)"/><text id="ProcessOnText1101" x="0" y="13.325" fill="#000" family="微软雅黑" font-family="微软雅黑" font-size="13" font-style="normal" font-weight="normal" size="13" text-anchor="middle" text-decoration="none">需要登录的业务</text></g></g><g id="ProcessOnG1102"><path id="ProcessOnPath1103" fill="none" stroke="#323232" stroke-dasharray="none" stroke-width="2" marker-end="url(#ProcessOnMarker1104)" d="M269.0138854980469 439.2534713745117L269.0138854980469 480.30902671813965L341.0278175205471 480.30902671813965"/></g><g id="ProcessOnG1106" opacity="1" transform="matrix(1.0,0.0,0.0,1.0,356.2638854980469,387.3645820617676)"><path id="ProcessOnPath1107" fill="#fff" stroke="#323232" stroke-dasharray="none" stroke-width="2" d="M0.0 0.0L155.5 0.0L155.5 41.88888931274414L0.0 41.88888931274414Z" opacity="1"/><g id="ProcessOnG1108" transform="matrix(1.0,0.0,0.0,1.0,10.0,12.81944465637207)"><text id="ProcessOnText1109" x="66.75" y="13.325" fill="#000" family="微软雅黑" font-family="微软雅黑" font-size="13" font-style="normal" font-weight="normal" size="13" text-anchor="middle" text-decoration="none">获取用户信息</text></g></g><g id="ProcessOnG1110"><path id="ProcessOnPath1111" fill="none" stroke="#323232" stroke-dasharray="none" stroke-width="2" marker-end="url(#ProcessOnMarker1112)" d="M434.0138854980469 345.03124618530273L434.0138854980469 366.19791412353516L434.0138854980469 366.19791412353516L434.0138854980469 372.1285140842678"/></g><g id="ProcessOnG1114"><path id="ProcessOnPath1115" fill="none" stroke="#323232" stroke-dasharray="none" stroke-width="2" marker-end="url(#ProcessOnMarker1116)" d="M434.0138854980469 429.2534713745117L434.0138854980469 444.30902671813965L434.0138854980469 444.30902671813965L434.0138854980469 445.30902671813965"/></g></g></g></svg>