<svg xmlns="http://www.w3.org/2000/svg" xmlns:xlink="http://www.w3.org/1999/xlink" id="processonSvg1000" width="526" height="476.444" viewBox="350.014 45.031 526 476.444"><defs id="ProcessOnDefs1001"><marker id="ProcessOnMarker1015" markerHeight="10.551" markerUnits="userSpaceOnUse" markerWidth="16.236" orient="auto" refX="-1" refY="3.899" viewBox="-1 -1.376 16.236 10.551"><path id="ProcessOnPath1016" fill="#323232" stroke="#323232" stroke-width="2" d="M12.0 3.8990363547948754L0.0 7.798072709589751V0.0Z" transform="matrix(1.0,0.0,0.0,1.0,0.0,0.0)"/></marker><marker id="ProcessOnMarker1019" markerHeight="10.551" markerUnits="userSpaceOnUse" markerWidth="16.236" orient="auto" refX="-1" refY="3.899" viewBox="-1 -1.376 16.236 10.551"><path id="ProcessOnPath1020" fill="#323232" stroke="#323232" stroke-width="2" d="M12.0 3.8990363547948754L0.0 7.798072709589751V0.0Z" transform="matrix(1.0,0.0,0.0,1.0,0.0,0.0)"/></marker><marker id="ProcessOnMarker1030" markerHeight="10.551" markerUnits="userSpaceOnUse" markerWidth="16.236" orient="auto" refX="-1" refY="3.899" viewBox="-1 -1.376 16.236 10.551"><path id="ProcessOnPath1031" fill="#323232" stroke="#323232" stroke-width="2" d="M12.0 3.8990363547948754L0.0 7.798072709589751V0.0Z" transform="matrix(1.0,0.0,0.0,1.0,0.0,0.0)"/></marker><marker id="ProcessOnMarker1038" markerHeight="10.551" markerUnits="userSpaceOnUse" markerWidth="16.236" orient="auto" refX="-1" refY="3.899" viewBox="-1 -1.376 16.236 10.551"><path id="ProcessOnPath1039" fill="#323232" stroke="#323232" stroke-width="2" d="M12.0 3.8990363547948754L0.0 7.798072709589751V0.0Z" transform="matrix(1.0,0.0,0.0,1.0,0.0,0.0)"/></marker><marker id="ProcessOnMarker1050" markerHeight="10.551" markerUnits="userSpaceOnUse" markerWidth="16.236" orient="auto" refX="-1" refY="3.899" viewBox="-1 -1.376 16.236 10.551"><path id="ProcessOnPath1051" fill="#323232" stroke="#323232" stroke-width="2" d="M12.0 3.8990363547948754L0.0 7.798072709589751V0.0Z" transform="matrix(1.0,0.0,0.0,1.0,0.0,0.0)"/></marker><marker id="ProcessOnMarker1061" markerHeight="10.551" markerUnits="userSpaceOnUse" markerWidth="16.236" orient="auto" refX="-1" refY="3.899" viewBox="-1 -1.376 16.236 10.551"><path id="ProcessOnPath1062" fill="#323232" stroke="#323232" stroke-width="2" d="M12.0 3.8990363547948754L0.0 7.798072709589751V0.0Z" transform="matrix(1.0,0.0,0.0,1.0,0.0,0.0)"/></marker><marker id="ProcessOnMarker1069" markerHeight="10.551" markerUnits="userSpaceOnUse" markerWidth="16.236" orient="auto" refX="-1" refY="3.899" viewBox="-1 -1.376 16.236 10.551"><path id="ProcessOnPath1070" fill="#323232" stroke="#323232" stroke-width="2" d="M12.0 3.8990363547948754L0.0 7.798072709589751V0.0Z" transform="matrix(1.0,0.0,0.0,1.0,0.0,0.0)"/></marker><marker id="ProcessOnMarker1080" markerHeight="10.551" markerUnits="userSpaceOnUse" markerWidth="16.236" orient="auto" refX="-1" refY="3.899" viewBox="-1 -1.376 16.236 10.551"><path id="ProcessOnPath1081" fill="#323232" stroke="#323232" stroke-width="2" d="M12.0 3.8990363547948754L0.0 7.798072709589751V0.0Z" transform="matrix(1.0,0.0,0.0,1.0,0.0,0.0)"/></marker><marker id="ProcessOnMarker1087" markerHeight="10.551" markerUnits="userSpaceOnUse" markerWidth="16.236" orient="auto" refX="-1" refY="3.899" viewBox="-1 -1.376 16.236 10.551"><path id="ProcessOnPath1088" fill="#323232" stroke="#323232" stroke-width="2" d="M12.0 3.8990363547948754L0.0 7.798072709589751V0.0Z" transform="matrix(1.0,0.0,0.0,1.0,0.0,0.0)"/></marker></defs><g id="ProcessOnG1002"><path id="ProcessOnPath1003" fill="none" d="M350.0138854980469 45.03124237060547H876.0138854980469V521.4756927490234H350.0138854980469V45.03124237060547Z"/><g id="ProcessOnG1004"><g id="ProcessOnG1005" opacity="1" transform="matrix(1.0,0.0,0.0,1.0,513.0138854980469,65.03124237060547)"><path id="ProcessOnPath1006" fill="#fff" stroke="#323232" stroke-dasharray="none" stroke-width="2" d="M16.666666666666668 0.0L83.33333333333333 0.0C105.55555555555556 0.0 105.55555555555556 50.0 83.33333333333333 50.0L16.666666666666668 50.0C-5.555555555555556 50.0 -5.555555555555556 0.0 16.666666666666668 0.0Z" opacity="1"/><g id="ProcessOnG1007" transform="matrix(1.0,0.0,0.0,1.0,10.0,16.875)"><text id="ProcessOnText1008" x="39" y="13.325" fill="#000" family="微软雅黑" font-family="微软雅黑" font-size="13" font-style="normal" font-weight="normal" size="13" text-anchor="middle" text-decoration="none">开始</text></g></g><g id="ProcessOnG1009" opacity="1" transform="matrix(1.0,0.0,0.0,1.0,487.5138854980469,145.03124237060547)"><path id="ProcessOnPath1010" fill="#fff" stroke="#323232" stroke-dasharray="none" stroke-width="2" d="M0.0 36.0L75.5 0.0L151.0 36.0L75.5 72.0Z" opacity="1"/><g id="ProcessOnG1011" transform="matrix(1.0,0.0,0.0,1.0,10.0,28.235)"><text id="ProcessOnText1012" x="64.5" y="13.325" fill="#000" family="微软雅黑" font-family="微软雅黑" font-size="13" font-style="normal" font-weight="normal" size="13" text-anchor="middle" text-decoration="none">请求需要登录？</text></g></g><g id="ProcessOnG1013"><path id="ProcessOnPath1014" fill="none" stroke="#323232" stroke-dasharray="none" stroke-width="2" marker-end="url(#ProcessOnMarker1015)" d="M563.0138854980469 115.03124237060547L563.0138854980469 130.03124237060547L563.0138854980469 130.03124237060547L563.0138854980469 131.03124237060547"/></g><g id="ProcessOnG1017"><path id="ProcessOnPath1018" fill="none" stroke="#323232" stroke-dasharray="none" stroke-width="2" marker-end="url(#ProcessOnMarker1019)" d="M487.5138854980469 181.03124237060547L420.0138854980469 181.03124237060547L420.0138854980469 206.79517439310567"/><g id="ProcessOnG1021" transform="matrix(1.0,0.0,0.0,1.0,440.8819194867968,172.90624237060547)"><path id="ProcessOnPath1022" fill="#fff" d="M0 0H13.0V16.25H0Z" transform="matrix(1.0,0.0,0.0,1.0,-6.5,0.0)"/><text id="ProcessOnText1023" x="0" y="13.325" fill="#000" family="微软雅黑" font-family="微软雅黑" font-size="13" font-style="normal" font-weight="normal" size="13" text-anchor="middle" text-decoration="none">否</text></g></g><g id="ProcessOnG1024" opacity="1" transform="matrix(1.0,0.0,0.0,1.0,370.0138854980469,222.03124237060547)"><path id="ProcessOnPath1025" fill="#fff" stroke="#323232" stroke-dasharray="none" stroke-width="2" d="M0.0 0.0L100.0 0.0L100.0 38.0L0.0 38.0Z" opacity="1"/><g id="ProcessOnG1026" transform="matrix(1.0,0.0,0.0,1.0,10.0,10.875)"><text id="ProcessOnText1027" x="39" y="13.325" fill="#000" family="微软雅黑" font-family="微软雅黑" font-size="13" font-style="normal" font-weight="normal" size="13" text-anchor="middle" text-decoration="none">发送请求</text></g></g><g id="ProcessOnG1028"><path id="ProcessOnPath1029" fill="none" stroke="#323232" stroke-dasharray="none" stroke-width="2" marker-end="url(#ProcessOnMarker1030)" d="M638.5138854980469 181.03124237060547L697.5138854980469 181.03124237060547L697.5138854980469 196.29517439310567"/></g><g id="ProcessOnG1032" opacity="1" transform="matrix(1.0,0.0,0.0,1.0,641.0138854980469,211.53124237060547)"><path id="ProcessOnPath1033" fill="#fff" stroke="#323232" stroke-dasharray="none" stroke-width="2" d="M0.0 29.5L56.5 0.0L113.0 29.5L56.5 59.0Z" opacity="1"/><g id="ProcessOnG1034" transform="matrix(1.0,0.0,0.0,1.0,10.0,21.67)"><text id="ProcessOnText1035" x="45.5" y="13.325" fill="#000" family="微软雅黑" font-family="微软雅黑" font-size="13" font-style="normal" font-weight="normal" size="13" text-anchor="middle" text-decoration="none">有token？</text></g></g><g id="ProcessOnG1036"><path id="ProcessOnPath1037" fill="none" stroke="#323232" stroke-dasharray="none" stroke-width="2" marker-end="url(#ProcessOnMarker1038)" d="M641.0138854980469 241.03124237060547L546.0138854980469 241.03124237060547L546.0138854980469 251.29517439310567"/><g id="ProcessOnG1040" transform="matrix(1.0,0.0,0.0,1.0,588.3819194867967,232.90624237060547)"><path id="ProcessOnPath1041" fill="#fff" d="M0 0H13.0V16.25H0Z" transform="matrix(1.0,0.0,0.0,1.0,-6.5,0.0)"/><text id="ProcessOnText1042" x="0" y="13.325" fill="#000" family="微软雅黑" font-family="微软雅黑" font-size="13" font-style="normal" font-weight="normal" size="13" text-anchor="middle" text-decoration="none">是</text></g></g><g id="ProcessOnG1043" opacity="1" transform="matrix(1.0,0.0,0.0,1.0,497.5138854980469,266.53124237060547)"><path id="ProcessOnPath1044" fill="#fff" stroke="#323232" stroke-dasharray="none" stroke-width="2" d="M0.0 0.0L97.0 0.0L97.0 38.0L0.0 38.0Z" opacity="1"/><g id="ProcessOnG1045" transform="matrix(1.0,0.0,0.0,1.0,10.0,2.75)"><text id="ProcessOnText1046" x="37.5" y="13.325" fill="#000" family="微软雅黑" font-family="微软雅黑" font-size="13" font-style="normal" font-weight="normal" size="13" text-anchor="middle" text-decoration="none">携带token</text><text id="ProcessOnText1047" x="37.5" y="29.575" fill="#000" family="微软雅黑" font-family="微软雅黑" font-size="13" font-style="normal" font-weight="normal" size="13" text-anchor="middle" text-decoration="none">发送请求</text></g></g><g id="ProcessOnG1048"><path id="ProcessOnPath1049" fill="none" stroke="#323232" stroke-dasharray="none" stroke-width="2" marker-end="url(#ProcessOnMarker1050)" d="M754.0138854980469 241.03124237060547L808.5138854980469 241.03124237060547L808.5138854980469 267.7951743931057"/><g id="ProcessOnG1052" transform="matrix(1.0,0.0,0.0,1.0,794.645851509297,232.90624237060547)"><path id="ProcessOnPath1053" fill="#fff" d="M0 0H13.0V16.25H0Z" transform="matrix(1.0,0.0,0.0,1.0,-6.5,0.0)"/><text id="ProcessOnText1054" x="0" y="13.325" fill="#000" family="微软雅黑" font-family="微软雅黑" font-size="13" font-style="normal" font-weight="normal" size="13" text-anchor="middle" text-decoration="none">否</text></g></g><g id="ProcessOnG1055" opacity="1" transform="matrix(1.0,0.0,0.0,1.0,761.0138854980469,283.03124237060547)"><path id="ProcessOnPath1056" fill="#fff" stroke="#323232" stroke-dasharray="none" stroke-width="2" d="M0.0 0.0L95.0 0.0L95.0 38.0L0.0 38.0Z" opacity="1"/><g id="ProcessOnG1057" transform="matrix(1.0,0.0,0.0,1.0,10.0,10.875)"><text id="ProcessOnText1058" x="36.5" y="13.325" fill="#000" family="微软雅黑" font-family="微软雅黑" font-size="13" font-style="normal" font-weight="normal" size="13" text-anchor="middle" text-decoration="none">取消请求</text></g></g><g id="ProcessOnG1059"><path id="ProcessOnPath1060" fill="none" stroke="#323232" stroke-dasharray="none" stroke-width="2" marker-end="url(#ProcessOnMarker1061)" d="M808.5138854980469 321.03124237060547L808.5138854980469 386.03124237060547L798.7499534755467 386.03124237060547"/></g><g id="ProcessOnG1063" opacity="1" transform="matrix(1.0,0.0,0.0,1.0,669.5138854980469,366.03124237060547)"><path id="ProcessOnPath1064" fill="#fff" stroke="#323232" stroke-dasharray="none" stroke-width="2" d="M0.0 0.0L114.0 0.0L114.0 40.0L0.0 40.0Z" opacity="1"/><g id="ProcessOnG1065" transform="matrix(1.0,0.0,0.0,1.0,10.0,11.875)"><text id="ProcessOnText1066" x="46" y="13.325" fill="#000" family="微软雅黑" font-family="微软雅黑" font-size="13" font-style="normal" font-weight="normal" size="13" text-anchor="middle" text-decoration="none">跳转到登录页面</text></g></g><g id="ProcessOnG1067"><path id="ProcessOnPath1068" fill="none" stroke="#323232" stroke-dasharray="none" stroke-width="2" marker-end="url(#ProcessOnMarker1069)" d="M546.0138854980469 304.53124237060547L546.0138854980469 330.28124237060547L546.0138854980469 330.28124237060547L546.0138854980469 340.7951743931057"/><g id="ProcessOnG1071" transform="matrix(1.0,0.0,0.0,1.0,546.0138854980469,314.5382083818556)"><path id="ProcessOnPath1072" fill="#fff" d="M0 0H94.0V16.25H0Z" transform="matrix(1.0,0.0,0.0,1.0,-47.0,0.0)"/><text id="ProcessOnText1073" x="0" y="13.325" fill="#000" family="微软雅黑" font-family="微软雅黑" font-size="13" font-style="normal" font-weight="normal" size="13" text-anchor="middle" text-decoration="none">服务器response</text></g></g><g id="ProcessOnG1074" opacity="1" transform="matrix(1.0,0.0,0.0,1.0,486.0138854980469,356.03124237060547)"><path id="ProcessOnPath1075" fill="#fff" stroke="#323232" stroke-dasharray="none" stroke-width="2" d="M0.0 30.0L60.0 0.0L120.0 30.0L60.0 60.0Z" opacity="1"/><g id="ProcessOnG1076" transform="matrix(1.0,0.0,0.0,1.0,10.0,22.175)"><text id="ProcessOnText1077" x="49" y="13.325" fill="#000" family="微软雅黑" font-family="微软雅黑" font-size="13" font-style="normal" font-weight="normal" size="13" text-anchor="middle" text-decoration="none">token有效？</text></g></g><g id="ProcessOnG1078"><path id="ProcessOnPath1079" fill="none" stroke="#323232" stroke-dasharray="none" stroke-width="2" marker-end="url(#ProcessOnMarker1080)" d="M606.0138854980469 386.03124237060547L637.7638854980469 386.03124237060547L637.7638854980469 386.03124237060547L654.277817520547 386.03124237060547"/><g id="ProcessOnG1082" transform="matrix(1.0,0.0,0.0,1.0,630.145851509297,377.90624237060547)"><path id="ProcessOnPath1083" fill="#fff" d="M0 0H13.0V16.25H0Z" transform="matrix(1.0,0.0,0.0,1.0,-6.5,0.0)"/><text id="ProcessOnText1084" x="0" y="13.325" fill="#000" family="微软雅黑" font-family="微软雅黑" font-size="13" font-style="normal" font-weight="normal" size="13" text-anchor="middle" text-decoration="none">否</text></g></g><g id="ProcessOnG1085"><path id="ProcessOnPath1086" fill="none" stroke="#323232" stroke-dasharray="none" stroke-width="2" marker-end="url(#ProcessOnMarker1087)" d="M546.0138854980469 416.03124237060547L546.0138854980469 439.25346755981445L546.0138854980469 439.25346755981445L546.0138854980469 447.23962477152367"/><g id="ProcessOnG1089" transform="matrix(1.0,0.0,0.0,1.0,546.0138854980469,423.5104335710646)"><path id="ProcessOnPath1090" fill="#fff" d="M0 0H13.0V16.25H0Z" transform="matrix(1.0,0.0,0.0,1.0,-6.5,0.0)"/><text id="ProcessOnText1091" x="0" y="13.325" fill="#000" family="微软雅黑" font-family="微软雅黑" font-size="13" font-style="normal" font-weight="normal" size="13" text-anchor="middle" text-decoration="none">是</text></g></g><g id="ProcessOnG1092" opacity="1" transform="matrix(1.0,0.0,0.0,1.0,496.0138854980469,462.47569274902344)"><path id="ProcessOnPath1093" fill="#fff" stroke="#323232" stroke-dasharray="none" stroke-width="2" d="M0.0 0.0L100.0 0.0L100.0 39.0L0.0 39.0Z" opacity="1"/><g id="ProcessOnG1094" transform="matrix(1.0,0.0,0.0,1.0,10.0,11.375)"><text id="ProcessOnText1095" x="39" y="13.325" fill="#000" family="微软雅黑" font-family="微软雅黑" font-size="13" font-style="normal" font-weight="normal" size="13" text-anchor="middle" text-decoration="none">处理数据</text></g></g></g></g></svg>